<svg preserveAspectRatio="xMidYMid meet" data-bbox="0.001 0 266.888 265.99" viewBox="0.001 0 266.888 265.99" xmlns="http://www.w3.org/2000/svg" data-type="color" role="presentation" aria-hidden="true" aria-labelledby="svgcid-svavoc-c0h9i7">
	<defs>
		<style>#comp-knd83qfa svg [data-color="1"] {fill: #7A5BCF;}</style>
	</defs>
	<title id="svgcid-svavoc-c0h9i7"></title>
	<g>
		<path d="M113.78 5.09c-4.67 4.7-31.25 32.34-30.16 75.52 1.03 40.56 25.75 65.94 30.96 71.06-3.46 1.73-37.35 18.01-71.68 0C2.81 130.64 1.84 83.68 1.83 81.6c-.11-32.21 19.4-60.17 45.91-73.29 30.75-15.23 60.36-5.26 66.04-3.22Z" fill="#7A5BCF" data-color="1"></path>
		<path d="M261.8 111.95c-4.7-4.67-32.34-31.25-75.52-30.16-40.56 1.03-65.94 25.75-71.06 30.96-1.73-3.46-18.01-37.35 0-71.68C136.25.98 183.2 0 185.29 0c32.21-.11 60.17 19.4 73.29 45.91 15.23 30.75 5.26 60.36 3.22 66.04Z" fill="#7A5BCF" data-color="1"></path>
		<path d="M154.93 260.9c4.67-4.7 31.25-32.34 30.16-75.52-1.03-40.56-25.75-65.94-30.96-71.06 3.46-1.73 37.35-18.01 71.68 0 40.1 21.03 41.07 67.99 41.07 70.07.11 32.21-19.4 60.17-45.91 73.29-30.75 15.23-60.36 5.26-66.04 3.22Z" fill="#7A5BCF" data-color="1"></path>
		<path d="M5.09 154.03c4.7 4.67 32.34 31.25 75.52 30.16 40.56-1.03 65.94-25.75 71.06-30.96 1.73 3.46 18.01 37.35 0 71.68-21.03 40.1-67.99 41.07-70.07 41.07-32.21.11-60.17-19.4-73.29-45.91-15.23-30.75-5.26-60.36-3.22-66.04Z" fill="#7A5BCF" data-color="1"></path>
	</g>
</svg>
