<?xml version="1.0" encoding="UTF-8" standalone="no"?>
<!-- Created with Inkscape (http://www.inkscape.org/) -->

<svg
   width="70.614159mm"
   height="70.376396mm"
   viewBox="0 0 70.614159 70.376396"
   version="1.1"
   id="svg160"
   xmlns="http://www.w3.org/2000/svg"
   xmlns:svg="http://www.w3.org/2000/svg">
  <defs
     id="defs157" />
  <g
     id="layer1"
     transform="translate(0.18876635,-0.18300946)">
    <g
       id="g15"
       transform="matrix(0.26458333,0,0,0.26458333,219.69952,59.29653)">
      <path
         d="m -717.29477,-218.33072 c -4.67,4.7 -31.25,32.34 -30.16,75.52 1.03,40.55999 25.75,65.939988 30.96,71.059988 -3.46,1.73 -37.35,18.01 -71.68,0 -40.09,-21.03 -41.06,-67.989988 -41.07,-70.069988 -0.11,-32.21 19.4,-60.17 45.91,-73.29 30.75,-15.23 60.36,-5.26 66.04,-3.22 z"
         fill="#7a5bcf"
         data-color="1"
         id="path7"
         style="fill:#ffffff;fill-opacity:1" />
      <path
         d="m -569.27477,-111.47073 c -4.7,-4.67 -32.34,-31.24999 -75.52,-30.15999 -40.56,1.03 -65.94,25.74999 -71.06,30.95999 -1.73,-3.46 -18.01,-37.34999 0,-71.67999 21.03,-40.09 67.98,-41.07 70.07,-41.07 32.21,-0.11 60.17,19.4 73.29,45.91 15.23,30.75 5.26,60.35999 3.22,66.03999 z"
         fill="#7a5bcf"
         data-color="1"
         id="path9"
         style="fill:#ffffff;fill-opacity:1" />
      <path
         d="m -676.14477,37.479268 c 4.67,-4.7 31.25,-32.3400001 30.16,-75.52 -1.03,-40.56 -25.75,-65.939998 -30.96,-71.059998 3.46,-1.73 37.35,-18.00999 71.68,0 40.1,21.029998 41.07,67.989998 41.07,70.069998 0.11,32.2099999 -19.4,60.17 -45.91,73.29 -30.75,15.23 -60.36,5.26 -66.04,3.22 z"
         fill="#7a5bcf"
         data-color="1"
         id="path11"
         style="fill:#ffffff;fill-opacity:1" />
      <path
         d="m -825.98477,-69.390732 c 4.7,4.67 32.34,31.25 75.52,30.16 40.56,-1.03 65.94,-25.75 71.06,-30.96 1.73,3.46 18.01,37.35 0,71.6799999 -21.03,40.1000001 -67.99,41.0700001 -70.07,41.0700001 -32.21,0.11 -60.17,-19.4 -73.29,-45.9100001 -15.23,-30.7499999 -5.26,-60.3599999 -3.22,-66.0399999 z"
         fill="#7a5bcf"
         data-color="1"
         id="path13"
         style="fill:#ffffff;fill-opacity:1" />
    </g>
  </g>
</svg>
