<?xml version="1.0" encoding="UTF-8" standalone="no"?>
<!-- Created with Inkscape (http://www.inkscape.org/) -->

<svg
   width="40.44495mm"
   height="9.7895832mm"
   viewBox="0 0 40.44495 9.7895832"
   version="1.1"
   id="svg7735"
   xmlns="http://www.w3.org/2000/svg"
   xmlns:svg="http://www.w3.org/2000/svg">
  <defs
     id="defs7732" />
  <g
     id="layer1"
     transform="translate(-29.221072,-93.65367)">
    <text
       font-family="'eScq2uhHvJK1:::Roboto'"
       font-size="27.1779px"
       font-weight="700"
       transform="scale(1.0318669,0.96911724)"
       fill="#7a5bcf"
       stroke-width="0"
       id="text6556"
       x="38.970387"
       y="104.22025"
       dy="0"
       dx="0"
       style="font-style:normal;font-variant:normal;font-weight:normal;font-stretch:normal;font-size:7.05556px;font-family:OpenSymbol;-inkscape-font-specification:OpenSymbol;letter-spacing:0.261937px;fill:#ffffff;fill-opacity:1"><tspan
         y="104.22025"
         font-weight="700"
         stroke-width="0"
         id="tspan6554"
         style="font-style:normal;font-variant:normal;font-weight:bold;font-stretch:normal;font-size:7.05556px;font-family:Arial;-inkscape-font-specification:'Arial Bold';fill:#ffffff;fill-opacity:1"><![CDATA[TIGADO]]></tspan></text>
    <g
       id="g8241"
       transform="matrix(0.03668047,0,0,0.03680439,29.221038,93.653687)">
      <path
         d="m 113.78,5.09 c -4.67,4.7 -31.25,32.34 -30.16,75.52 1.03,40.56 25.75,65.94 30.96,71.06 -3.46,1.73 -37.35,18.01 -71.68,0 C 2.81,130.64 1.84,83.68 1.83,81.6 1.72,49.39 21.23,21.43 47.74,8.31 78.49,-6.92 108.1,3.05 113.78,5.09 Z"
         fill="#7a5bcf"
         data-color="1"
         id="path8233"
         style="fill:#ffffff;fill-opacity:1" />
      <path
         d="m 261.8,111.95 c -4.7,-4.67 -32.34,-31.25 -75.52,-30.16 -40.56,1.03 -65.94,25.75 -71.06,30.96 -1.73,-3.46 -18.01,-37.35 0,-71.68 C 136.25,0.98 183.2,0 185.29,0 c 32.21,-0.11 60.17,19.4 73.29,45.91 15.23,30.75 5.26,60.36 3.22,66.04 z"
         fill="#7a5bcf"
         data-color="1"
         id="path8235"
         style="fill:#ffffff;fill-opacity:1" />
      <path
         d="m 154.93,260.9 c 4.67,-4.7 31.25,-32.34 30.16,-75.52 -1.03,-40.56 -25.75,-65.94 -30.96,-71.06 3.46,-1.73 37.35,-18.01 71.68,0 40.1,21.03 41.07,67.99 41.07,70.07 0.11,32.21 -19.4,60.17 -45.91,73.29 -30.75,15.23 -60.36,5.26 -66.04,3.22 z"
         fill="#7a5bcf"
         data-color="1"
         id="path8237"
         style="fill:#ffffff;fill-opacity:1" />
      <path
         d="m 5.09,154.03 c 4.7,4.67 32.34,31.25 75.52,30.16 40.56,-1.03 65.94,-25.75 71.06,-30.96 1.73,3.46 18.01,37.35 0,71.68 -21.03,40.1 -67.99,41.07 -70.07,41.07 C 49.39,266.09 21.43,246.58 8.31,220.07 -6.92,189.32 3.05,159.71 5.09,154.03 Z"
         fill="#7a5bcf"
         data-color="1"
         id="path8239"
         style="fill:#ffffff;fill-opacity:1" />
    </g>
  </g>
</svg>
